<?xml version="1.0" encoding="UTF-8"?>
<level>
  <owner>Fistachka</owner>
  <repo>zabava4</repo>
  <version>v1.0.4</version>
  <next number="1" owner="Fistachka" repo="zabava3"/>
  <readme>
    <ru>d2f188a6ec5019885a0ec040034fb33603b0e0284f13ed2f30fa74f0ea710595</ru>
    <en>9221deea64661ef472e01acc583db0eac07a63e50e8af8a3ac663cc69ad163b8</en>
  </readme>
  <license>b1b99f5538d1fd3702219bff50c665196dfa42f6ee755c37fe41a6178d6bc6e5</license>
  <exercise number="1">
    <scale>minor</scale>
    <bpm>116</bpm>
    <lowestNote>58</lowestNote>
    <tonalities>1</tonalities>
    <video name="25t.mp4" size="1211872" type="video/mp4" volume="0.5">e9b56ac6b2cd1d68fa2d4594ceaa20c58285d1c580ad0f30deea2ec615ab668a</video>
    <notes>
      <note number="1" values="388" ticks="34" durationTicks="107" ppq="96" velocity="0.843"/>
      <note number="2" values="588" ticks="127" durationTicks="65" ppq="96" velocity="0.906"/>
      <note number="3" values="188" ticks="224" durationTicks="63" ppq="96" velocity="0.866"/>
      <note number="4" values="288" ticks="287" durationTicks="48" ppq="96" velocity="0.913"/>
      <note number="5" values="798" ticks="343" durationTicks="110" ppq="96" velocity="0.913"/>
    </notes>
  </exercise>
  <exercise number="2">
    <scale>minor</scale>
    <bpm>116</bpm>
    <lowestNote>58</lowestNote>
    <tonalities>1</tonalities>
    <video name="26t.mp4" size="1397672" type="video/mp4" volume="0.5">9f623c53252940ddb9649c909acc67209df4106b219898dad22c437bf330b0ee</video>
    <notes>
      <note number="1" values="798" ticks="36" durationTicks="37" ppq="96" velocity="0.843"/>
      <note number="2" values="798" ticks="92" durationTicks="45" ppq="96" velocity="0.906"/>
      <note number="3" values="588" ticks="158" durationTicks="35" ppq="96" velocity="0.858"/>
      <note number="4" values="798" ticks="213" durationTicks="44" ppq="96" velocity="0.906"/>
      <note number="5" values="798" ticks="264" durationTicks="37" ppq="96" velocity="0.906"/>
      <note number="6" values="288" ticks="318" durationTicks="70" ppq="96" velocity="0.906"/>
      <note number="7" values="188" ticks="383" durationTicks="39" ppq="96" velocity="0.906"/>
    </notes>
  </exercise>
  <exercise number="3">
    <scale>minor</scale>
    <bpm>116</bpm>
    <lowestNote>58</lowestNote>
    <tonalities>1</tonalities>
    <video name="27t.mp4" size="1261100" type="video/mp4" volume="0.5">e2b06f0349df3586e0cb3e6adf662a668c76315d1256fc24b8db37c968f330cc</video>
    <notes>
      <note number="1" values="388" ticks="25" durationTicks="76" ppq="96" velocity="0.843"/>
      <note number="2" values="588" ticks="132" durationTicks="77" ppq="96" velocity="0.906"/>
      <note number="3" values="188" ticks="217" durationTicks="41" ppq="96" velocity="0.858"/>
      <note number="4" values="188" ticks="262" durationTicks="49" ppq="96" velocity="0.906"/>
      <note number="5" values="798" ticks="315" durationTicks="95" ppq="96" velocity="0.906"/>
    </notes>
  </exercise>
  <exercise number="4">
    <scale>minor</scale>
    <bpm>116</bpm>
    <lowestNote>58</lowestNote>
    <tonalities>1</tonalities>
    <video name="28t.mp4" size="1216257" type="video/mp4" volume="0.5">d65b4f7b2ea4c19dd2212e6ce48b1d92e6b1d954991f91a6b3ea6677e7fb2b7e</video>
    <notes>
      <note number="1" values="798" ticks="48" durationTicks="37" ppq="96" velocity="0.843"/>
      <note number="2" values="798" ticks="93" durationTicks="59" ppq="96" velocity="0.906"/>
      <note number="3" values="588" ticks="155" durationTicks="35" ppq="96" velocity="0.85"/>
      <note number="4" values="798" ticks="219" durationTicks="62" ppq="96" velocity="0.906"/>
      <note number="5" values="188" ticks="291" durationTicks="72" ppq="96" velocity="0.906"/>
    </notes>
  </exercise>
  <exercise number="5">
    <scale>minor</scale>
    <bpm>116</bpm>
    <lowestNote>58</lowestNote>
    <tonalities>1</tonalities>
    <video name="29t.mp4" size="1376388" type="video/mp4" volume="0.5">9e652819de1476e20c80e2e5123fb7ea2919172b62af9604f643ebc5b1c4467a</video>
    <notes>
      <note number="1" values="388" ticks="39" durationTicks="99" ppq="96" velocity="0.843"/>
      <note number="2" values="588" ticks="141" durationTicks="50" ppq="96" velocity="0.906"/>
      <note number="3" values="188" ticks="203" durationTicks="44" ppq="96" velocity="0.858"/>
      <note number="4" values="188" ticks="255" durationTicks="67" ppq="96" velocity="0.906"/>
      <note number="5" values="78" ticks="328" durationTicks="70" ppq="96" velocity="0.906"/>
      <note number="6" values="78" ticks="409" durationTicks="124" ppq="96" velocity="0.906"/>
    </notes>
  </exercise>
  <exercise number="6">
    <scale>minor</scale>
    <bpm>116</bpm>
    <lowestNote>58</lowestNote>
    <tonalities>1</tonalities>
    <video name="30t.mp4" size="1229361" type="video/mp4" volume="0.5">ad291cc311e975f6de8cf48b9ba9cbcacd21db4e6cd7791cda7edb19b4219d2d</video>
    <notes>
      <note number="1" values="78" ticks="24" durationTicks="37" ppq="96" velocity="0.843"/>
      <note number="2" values="288" ticks="72" durationTicks="45" ppq="96" velocity="0.906"/>
      <note number="3" values="288" ticks="124" durationTicks="46" ppq="96" velocity="0.85"/>
      <note number="4" values="488" ticks="174" durationTicks="42" ppq="96" velocity="0.906"/>
      <note number="5" values="488" ticks="224" durationTicks="137" ppq="96" velocity="0.906"/>
      <note number="6" values="388" ticks="360" durationTicks="44" ppq="96" velocity="0.906"/>
    </notes>
  </exercise>
  <exercise number="7">
    <scale>chromaticminor</scale>
    <bpm>118</bpm>
    <lowestNote>58</lowestNote>
    <tonalities>1</tonalities>
    <video name="31t.mp4" size="1448386" type="video/mp4" volume="0.5">49834e425fe59bfb786eb735d973858c880b5a386442e6aa7710e6a72d5fe003</video>
    <notes>
      <note number="1" values="388" ticks="50" durationTicks="26" ppq="96" velocity="0.843"/>
      <note number="2" values="488" ticks="95" durationTicks="81" ppq="96" velocity="0.906"/>
      <note number="3" values="488" ticks="184" durationTicks="36" ppq="96" velocity="0.858"/>
      <note number="4" values="4988" ticks="233" durationTicks="44" ppq="96" velocity="0.906"/>
      <note number="5" values="588" ticks="287" durationTicks="95" ppq="96" velocity="0.906"/>
      <note number="6" values="798" ticks="377" durationTicks="41" ppq="96" velocity="0.906"/>
      <note number="7" values="798" ticks="429" durationTicks="46" ppq="96" velocity="0.906"/>
      <note number="8" values="188" ticks="479" durationTicks="144" ppq="96" velocity="0.906"/>
    </notes>
  </exercise>
</level>
